<?xml version="1.0" encoding="utf-8"?>
<!-- Generator: Adobe Illustrator 16.0.0, SVG Export Plug-In . SVG Version: 6.00 Build 0)  -->
<!DOCTYPE svg PUBLIC "-//W3C//DTD SVG 1.1//EN" "http://www.w3.org/Graphics/SVG/1.1/DTD/svg11.dtd">
<svg version="1.1" id="Layer_1" xmlns="http://www.w3.org/2000/svg" xmlns:xlink="http://www.w3.org/1999/xlink" x="0px" y="0px"
	 width="25px" height="25px" viewBox="0 0 25 25" enable-background="new 0 0 25 25" xml:space="preserve">
<rect x="4.832" y="4.857" transform="matrix(0.7192 -0.6948 0.6948 0.7192 -5.1738 12.1994)" fill="#FFDE00" stroke="#000000" stroke-width="2" stroke-miterlimit="10" width="15.347" height="15.286"/>
<rect x="12.404" y="10.822" fill="#FFFFFF" width="0" height="0"/>
<rect x="11.217" y="9.681" fill="#FFFFFF" width="1.633" height="3.049"/>
<path id="flask-20-icon" fill="#010202" d="M15.77,14.42c0,1.836-1.488,3.324-3.324,3.324c-4.028,0-5.465-6.205,1.226-11.294
	C13.594,9.635,15.77,11.438,15.77,14.42z M12.576,9.753c-0.464,0.254-1.152,0.94-1.255,1.793c-0.156,1.281,1.166,1.659,1.285-0.058
	C12.656,10.766,12.606,10.419,12.576,9.753z"/>
</svg>
